<svg version="1.1" xmlns="http://www.w3.org/2000/svg" xmlns:xlink="http://www.w3.org/1999/xlink" x="0px" y="0px" viewBox="0 0 32 32" xml:space="preserve" width="32" height="32"><g class="nc-icon-wrapper" fill="#000000"><path fill="none" stroke="#000000" stroke-width="2" stroke-miterlimit="10" d="M11.657,15.775c-1.76-0.315-3.64,0.208-5,1.568l-3,3 c-2.209,2.209-2.209,5.791,0,8l0,0c2.209,2.209,5.791,2.209,8,0l3-3c1.36-1.36,1.883-3.24,1.568-5" stroke-linejoin="miter" stroke-linecap="square"></path> <path fill="none" stroke="#000000" stroke-width="2" stroke-miterlimit="10" d="M15.775,11.657c-0.315-1.76,0.208-3.64,1.568-5l3-3 c2.209-2.209,5.791-2.209,8,0l0,0c2.209,2.209,2.209,5.791,0,8l-3,3c-1.36,1.36-3.24,1.883-5,1.568" stroke-linejoin="miter" stroke-linecap="square"></path> <line data-color="color-2" fill="none" stroke="#000000" stroke-width="2" stroke-linecap="square" stroke-miterlimit="10" x1="11" y1="21" x2="21" y2="11" stroke-linejoin="miter"></line></g></svg>